<?xml version="1.0" encoding="UTF-8" standalone="no"?>
<!-- Created with Inkscape (http://www.inkscape.org/) -->

<svg
   xmlns:dc="http://purl.org/dc/elements/1.1/"
   xmlns:cc="http://creativecommons.org/ns#"
   xmlns:rdf="http://www.w3.org/1999/02/22-rdf-syntax-ns#"
   xmlns:svg="http://www.w3.org/2000/svg"
   xmlns="http://www.w3.org/2000/svg"
   xmlns:sodipodi="http://sodipodi.sourceforge.net/DTD/sodipodi-0.dtd"
   xmlns:inkscape="http://www.inkscape.org/namespaces/inkscape"
   width="210mm"
   height="297mm"
   viewBox="0 0 744.09448819 1052.3622047"
   id="svg2"
   version="1.1"
   inkscape:version="0.91 r13725"
   sodipodi:docname="42.svg">
  <defs
     id="defs4" />
  <sodipodi:namedview
     id="base"
     pagecolor="#ffffff"
     bordercolor="#666666"
     borderopacity="1.0"
     inkscape:pageopacity="0.0"
     inkscape:pageshadow="2"
     inkscape:zoom="0.98994949"
     inkscape:cx="257.24554"
     inkscape:cy="578.16796"
     inkscape:document-units="px"
     inkscape:current-layer="layer1"
     showgrid="false"
     inkscape:window-width="2194"
     inkscape:window-height="1171"
     inkscape:window-x="2040"
     inkscape:window-y="-8"
     inkscape:window-maximized="1" />
  <metadata
     id="metadata7">
    <rdf:RDF>
      <cc:Work
         rdf:about="">
        <dc:format>image/svg+xml</dc:format>
        <dc:type
           rdf:resource="http://purl.org/dc/dcmitype/StillImage" />
        <dc:title></dc:title>
      </cc:Work>
    </rdf:RDF>
  </metadata>
  <g
     inkscape:label="Layer 1"
     inkscape:groupmode="layer"
     id="layer1">
    <path
       id="path4013"
       style="fill:none;fill-rule:evenodd;stroke:#000000;stroke-width:1px;stroke-linecap:butt;stroke-linejoin:miter;stroke-opacity:1"
       d="m 547.2195,455.69598 c 28.42633,-22.8164 22.46811,-66.85396 21.5156,-81.88054 0.89492,-3.6664 12.52272,-10.61211 23.40532,-4.4874 5.7078,32.45825 3.06017,62.87833 -11.48737,82.90636 -3.78072,5.20503 -9.23283,8.73951 -11.17955,13.22918 -1.94672,4.48967 40.81292,88.79557 82.32743,137.12821 -9.26344,0.0452 -21.2485,0.53379 -25.83065,-1.33974 -7.49683,-3.06526 -13.01136,-10.57575 -18.73368,-19.23887 -15.71205,-23.78677 -32.63111,-53.75957 -38.01564,-69.32497 -9.68029,-27.98346 -30.90211,-49.84812 -22.00146,-56.99223 z m 63.6882,-33.56218 c 3.14008,-40.78259 1.85396,-142.47779 8.0775,-223.90633 2.78496,-36.43829 -10.94841,-49.53048 -26.15192,-62.45243 -16.62772,-11.66983 -59.87431,-50.625576 -59.72528,-26.26396 0.74938,122.4962 12.44596,162.54648 10.6066,239.53241 -1.83936,76.98593 -7.39632,96.40224 -13.24105,101.54561 -6.78217,5.96831 -17.23518,8.7731 -38.48375,14.22673 -32.00426,8.21416 -58.42018,16.53602 -81.4674,22.56998 -27.90304,6.7307 -56.26415,11.31729 -84.52286,16.26769 -14.07718,2.46606 -47.87908,9.73476 -53.25804,4.74156 -5.24881,-4.87238 -6.71564,-16.02664 -1.01016,-19.69798 25.66909,-6.92553 58.59819,-12.42525 83.84267,-19.60606 48.07367,-13.67459 113.76273,-25.94752 116.67261,-33.93202 2.26811,-6.22351 -81.50525,14.57739 -114.04263,23.65193 -14.0968,3.77345 -84.04238,21.26159 -97.74022,24.7549 -12.19946,2.58427 -16.29935,-9.8852 -27.94454,-30.41842 -49.99846,-88.15854 -79.42951,-165.85379 -116.265,-256.59053 l -3e-5,0 c -3.41382,-8.40926 8.18564,-13.09242 8.18564,-13.09242 116.10903,-52.80115 241.05751,-97.704463 374.77422,-122.880793 14.16362,-2.666741 47.50092,23.179275 68.43039,39.041886 21.76658,16.497057 56.82915,43.235267 58.32888,57.542797 8.3107,26.9273 -5.07714,177.69731 -8.77013,262.45955 -0.44143,10.13182 -3.05727,23.4062 -10.97629,26.80672 -8.23797,3.53748 -17.96144,3.63836 -17.96144,3.63836 3.27574,-3.73666 6.71786,-14.05118 6.82878,-17.35624 0.11092,-3.30506 14.5185,6.23561 15.81345,-10.58294 z m -276.84833,84.9769 c 12.18877,-1.95163 -7.26015,32.6556 -12.97443,91.48471 11.46215,-29.07633 36.69636,-41.70936 49.74782,-65.03012 6.57529,-11.74896 25.65604,-32.5128 39.13931,-36.92223 13.48327,-4.40943 40.68955,0.0655 48.06891,-1.53013 0,0 -6.78976,-12.27604 -1.67147,-13.40028 25.68204,-2.84282 42.68921,-9.36539 55.52558,-12.46103 4.5851,-1.10576 -2.87058,16.1511 1.83312,15.59503 8.20963,-0.97054 31.35355,-3.53674 35.03744,2.33517 19.39407,30.91303 30.64022,68.01496 43.94163,89.65104 18.21319,29.62558 25.5104,24.43731 23.48605,24.74874 -9.35171,1.43873 -57.13713,2.18809 -78.79189,0.50508 -21.65477,-1.683 -134.5638,25.65483 -161.06587,12.10578 -5.18043,-2.64847 4.07799,-12.69466 14.21129,-24.41555 14.79213,-17.51309 22.82564,-32.68966 11.48362,-42.59779 -20.39952,16.3769 -61.47239,52.08515 -69.48696,65.29406 -5.9329,9.7781 -16.76633,7.2228 -39.95089,9.20687 -1.16947,-7.34163 -0.55799,-17.82247 -0.22933,-21.0399 1.94103,-24.97893 16.04124,-56.08479 12.41244,-71.37419 -13.34227,0.0267 -20.2535,-1.00905 -24.92885,-4.18175 -4.67535,-3.17269 -10.18694,-13.50242 -1.72643,-11.69598 8.46051,1.80644 43.75014,-4.32593 55.93891,-6.27756 z"
       inkscape:connector-curvature="0"
       sodipodi:nodetypes="sccsscsssssscssssccscssccscccsscssszsccssccssssszsccsccczzzc" />
    <path
       style="fill:none;fill-rule:evenodd;stroke:#000000;stroke-width:1px;stroke-linecap:butt;stroke-linejoin:miter;stroke-opacity:1"
       d="m 602.19255,487.26649 c 8.14172,5.47878 12.45031,52.23857 12.45031,52.23857 l -31.89404,-55.25254 c 0,0 11.302,-2.46481 19.44373,3.01397 z"
       id="path4021"
       inkscape:connector-curvature="0"
       sodipodi:nodetypes="zccz" />
    <path
       style="fill:none;fill-rule:evenodd;stroke:#000000;stroke-width:1px;stroke-linecap:butt;stroke-linejoin:miter;stroke-opacity:1"
       d="m 209.10158,626.07783 c 287.72143,6.53832 301.30646,-28.41865 442.44681,-12.62691 17.17693,6.87368 40.9979,59.42875 36.3655,59.599 -197.06641,7.24278 -370.42099,30.37767 -613.162602,22.72844 2.949821,-20.26866 19.698043,-31.12844 33.554752,-31.46267 11.41616,-0.27536 71.85163,-0.93945 84.9946,-4.12727 13.14296,-3.18781 6.36927,-34.32492 15.80094,-34.11059 z"
       id="path4023"
       inkscape:connector-curvature="0"
       sodipodi:nodetypes="scscszs" />
    <path
       style="fill:none;fill-rule:evenodd;stroke:#000000;stroke-width:1px;stroke-linecap:butt;stroke-linejoin:miter;stroke-opacity:1"
       d="m 497.12132,440.96738 c 8.44211,-0.0447 14.48948,-6.11312 14.39468,-14.52095 -0.0948,-8.40783 -6.79869,-14.45112 -15.65737,-13.88959 -8.85868,0.56153 -13.39409,6.38327 -13.25825,14.14213 0.13584,7.75886 6.07883,14.31311 14.52094,14.26841 z"
       id="path4027"
       inkscape:connector-curvature="0"
       sodipodi:nodetypes="zzzzz" />
    <path
       style="fill:none;fill-rule:evenodd;stroke:#000000;stroke-width:1px;stroke-linecap:butt;stroke-linejoin:miter;stroke-opacity:1"
       d="m 496.11117,431.37092 c 3.51563,0.1484 5.98229,-2.29639 6.06091,-5.80838 0.0899,-4.01778 -3.51922,-5.39688 -6.06091,-5.42957 -3.59202,-0.0462 -6.2242,1.98321 -6.18719,4.79822 0.0503,3.82439 2.03739,6.26457 6.18719,6.43973 z"
       id="path4029"
       inkscape:connector-curvature="0"
       sodipodi:nodetypes="sssss" />
    <path
       style="fill:#a0a0a0;stroke:none;stroke-width:1px;stroke-linecap:butt;stroke-linejoin:miter;stroke-opacity:1"
       d="m 273.86892,507.79946 c -3.81278,-2.21632 -5.99149,-11.73459 -3.67624,-16.06067 1.24931,-2.33437 2.21661,-2.60071 38.87369,-10.70407 16.11193,-3.56167 40.43135,-9.4003 54.04316,-12.97474 13.6118,-3.57443 38.48168,-9.91282 55.26638,-14.08528 34.19751,-8.50106 48.88177,-13.03771 52.62642,-16.25871 4.07989,-3.50938 2.14434,-4.90582 -5.86869,-4.23404 -15.82512,1.32672 -38.76142,6.7201 -153.03681,35.98598 -28.33478,7.25652 -52.81136,13.19771 -54.39239,13.20263 -3.87323,0.0121 -7.68479,-2.39835 -10.91109,-6.90015 -4.63543,-6.46803 -27.96696,-49.14451 -41.23172,-75.41832 -13.84173,-27.4166 -22.86788,-46.71874 -36.13647,-77.27667 -17.19822,-39.60797 -52.79285,-127.31975 -52.79285,-130.09138 0,-2.49806 4.44561,-6.5184 10.6066,-9.59195 9.04546,-4.51253 58.03561,-25.50908 81.31728,-34.85154 92.91386,-37.28445 182.34699,-64.762095 268.70058,-82.556205 24.77665,-5.105503 27.49172,-5.194873 36.51297,-1.201863 12.1403,5.373577 40.59201,25.248648 73.08858,51.056348 14.80044,11.75403 32.88781,29.53073 35.61733,35.00558 7.3308,14.70406 7.03441,46.40117 -1.77576,189.90868 -1.09146,17.77869 -2.66048,44.59824 -3.48669,59.599 -2.03616,36.96822 -4.03962,43.20838 -14.90873,46.43616 -4.98258,1.47967 -10.90047,2.06513 -10.90047,1.07841 0,-0.25723 0.90914,-2.77418 2.02031,-5.59324 1.11117,-2.81905 2.0203,-6.01786 2.0203,-7.10846 0,-1.72223 0.70726,-1.98291 5.37976,-1.98291 4.35747,0 5.80823,-0.45609 7.6346,-2.40017 3.88499,-4.13539 4.31577,-10.99112 6.1964,-98.61509 1.1669,-54.36908 2.57849,-92.36152 4.54656,-122.36881 1.94677,-29.68288 0.83615,-38.97057 -6.29207,-52.61765 -4.66822,-8.9374 -12.75344,-17.03656 -30.59723,-30.65001 -18.41672,-14.05056 -25.68425,-18.96119 -33.61306,-22.71215 -7.50559,-3.55075 -11.79891,-3.80002 -14.46516,-0.83984 -1.79542,1.99335 -1.90588,3.73573 -1.64894,26.01143 0.46483,40.29926 1.84589,65.53258 7.85822,143.57803 4.84545,62.89842 1.4316,148.41308 -6.80534,170.46877 -3.55588,9.52144 -8.00133,11.67738 -44.1729,21.42284 -14.21516,3.8299 -35.61897,9.74432 -47.56402,13.14317 -38.43196,10.93542 -50.26007,13.54847 -105.56094,23.32032 -47.81416,8.44893 -57.86361,9.55511 -62.47157,6.87657 z m 231.6097,-68.44209 c 9.19109,-6.54717 9.22199,-19.01432 0.0624,-25.18404 -2.99356,-2.0164 -4.50066,-2.32203 -9.83146,-1.99369 -5.28504,0.32554 -6.78792,0.85914 -9.36003,3.32339 -7.7351,7.4107 -5.43621,20.32523 4.42558,24.86172 4.79649,2.20641 10.76604,1.79742 14.70349,-1.00738 l -1e-5,0 z"
       id="path4031"
       inkscape:connector-curvature="0" />
    <path
       style="fill:#a0a0a0;stroke:none;stroke-width:1px;stroke-linecap:butt;stroke-linejoin:miter;stroke-opacity:1"
       d="m 293.23305,615.01225 c -0.6713,-11.17307 1.18702,-24.66276 6.19849,-44.99532 5.99336,-24.31623 7.59637,-33.41248 6.71558,-38.10745 l -0.65658,-3.49992 -9.32377,-0.48973 c -12.79835,-0.67224 -19.8576,-4.48583 -21.11231,-11.40544 -0.30035,-1.6564 0.61487,-1.86529 9.26317,-2.11421 5.27805,-0.15191 18.00597,-1.51978 28.28427,-3.03971 24.6833,-3.65011 23.66692,-3.66542 24.05523,0.36238 0.17416,1.80644 -2.20067,13.62523 -5.27741,26.26397 -7.93448,32.59363 -12.67739,60.86025 -10.21186,60.86025 0.62134,0 1.66656,-1.48462 2.3227,-3.29917 2.23007,-6.16712 11.567,-19.11455 20.82887,-28.88318 17.23222,-18.17505 21.15389,-22.84766 27.66973,-32.96805 8.86344,-13.76668 24.27656,-29.12314 34.04037,-33.91523 l 7.05957,-3.46486 21.2247,-0.13554 c 27.03935,-0.17268 25.13115,-0.004 24.22715,-2.1373 -2.4224,-5.71564 -3.50299,-9.75164 -2.798,-10.45049 0.44314,-0.43926 5.52079,-1.54666 11.28368,-2.46089 5.76289,-0.91423 17.99261,-3.66753 27.17716,-6.11845 9.18455,-2.45092 17.04869,-4.45622 17.47585,-4.45622 0.42717,0 0.52471,3.33151 0.21675,7.40334 l -0.5599,7.40334 16.90302,-0.0797 16.90302,-0.0797 2.84135,3.39395 c 4.18811,5.00266 13.70654,23.95018 26.2817,52.31674 6.12026,13.80583 13.22853,28.73806 15.79617,33.18273 5.85841,10.14111 14.96911,22.34424 18.3222,24.54126 l 2.55398,1.67343 -3.45351,0.78219 c -1.89943,0.4302 -21.63625,0.71814 -43.85961,0.63987 l -40.4061,-0.14232 -30.30458,4.73105 c -40.32424,6.29528 -55.62427,8.32343 -73.7184,9.77198 -20.92817,1.67542 -40.40004,0.20894 -42.50774,-3.2014 -1.3669,-2.2117 0.85909,-6.00416 9.76303,-16.63344 16.41006,-19.58989 23.27638,-32.26747 21.71223,-40.08821 -0.77081,-3.85408 -4.4339,-9.86172 -5.9927,-9.82831 -1.48149,0.0317 -22.79487,18.16047 -42.2725,35.95612 -13.98334,12.7758 -22.12685,21.33866 -28.37948,29.84085 -3.85906,5.24749 -8.90686,6.82323 -24.64604,7.69363 l -13.30551,0.7358 -0.33397,-5.55858 z"
       id="path4033"
       inkscape:connector-curvature="0" />
    <path
       style="fill:#a0a0a0;stroke:none;stroke-width:1px;stroke-linecap:butt;stroke-linejoin:miter;stroke-opacity:1"
       d="m 629.01763,600.88858 c -8.62986,-2.04693 -14.69495,-8.92824 -30.53863,-34.64846 -11.79663,-19.15035 -23.01896,-40.69622 -28.92612,-55.53556 -2.48663,-6.24663 -7.65919,-17.06591 -11.49459,-24.04282 -8.74106,-15.90076 -12.08868,-23.06485 -12.10128,-25.89742 -0.006,-1.33658 1.82458,-3.93661 4.60878,-6.54618 14.80691,-13.87814 21.64544,-37.36275 20.00234,-68.69117 l -0.67159,-12.80482 3.29674,-2.00486 c 4.48852,-2.72964 9.3239,-3.48995 14.06902,-2.21223 3.62516,0.97616 4.03125,1.43472 4.68211,5.28709 1.39426,8.25258 2.06182,25.70253 1.3662,35.71262 -1.41109,20.30578 -7.19402,35.22957 -18.56551,47.91133 -7.70559,8.59347 -7.64068,7.59607 -1.41417,21.72789 13.13872,29.81993 45.45664,83.13398 67.535,111.41079 4.46422,5.71754 8.11677,10.60415 8.11677,10.85913 0,0.75537 -16.38306,0.32428 -19.96507,-0.52533 z"
       id="path4035"
       inkscape:connector-curvature="0" />
    <path
       style="fill:#a0a0a0;stroke:none;stroke-width:1px;stroke-linecap:butt;stroke-linejoin:miter;stroke-opacity:1"
       d="m 601.50553,514.76643 c -5.83363,-10.09461 -12.14349,-21.04815 -14.02191,-24.3412 l -3.41531,-5.98736 5.94069,0.44328 c 10.96451,0.81817 14.20906,3.99508 17.63516,17.2675 2.23492,8.65793 5.27403,27.30445 4.80098,29.4566 -0.18316,0.83326 -5.10598,-6.74421 -10.93961,-16.83882 z"
       id="path4037"
       inkscape:connector-curvature="0" />
    <path
       style="fill:#a0a0a0;stroke:none;stroke-width:1px;stroke-linecap:butt;stroke-linejoin:miter;stroke-opacity:1"
       d="m 85.065041,695.12701 c -10.408896,-0.46411 -10.522009,-0.66504 -5.750155,-10.21437 3.784741,-7.57394 11.237992,-14.52289 18.48512,-17.23439 4.645984,-1.73828 9.737174,-2.12935 40.519174,-3.11235 39.18354,-1.25131 54.48948,-2.48751 57.84162,-4.67165 3.54703,-2.31112 5.36826,-6.9286 7.49864,-19.01182 1.08857,-6.17414 2.43111,-11.68028 2.98344,-12.23586 0.64758,-0.6514 24.93326,-1.04356 68.38138,-1.1042 90.2937,-0.12603 130.69209,-2.13137 212.33403,-10.54002 54.60107,-5.6236 65.01978,-6.31371 95.45942,-6.32298 31.30239,-0.01 65.36336,2.3312 70.18208,4.82305 5.86866,3.0348 15.94466,15.94394 24.05741,30.82182 4.40344,8.07541 10.3113,22.11673 10.3113,24.50708 0,1.17571 -3.5919,1.56849 -19.44544,2.12639 -24.7468,0.87086 -81.25292,4.00347 -130.56222,7.23816 -113.03074,7.4148 -157.41737,9.99793 -235.36554,13.69734 -22.19722,1.05347 -198.48754,2.05614 -216.930259,1.2338 z"
       id="path4039"
       inkscape:connector-curvature="0" />
    <path
       style="fill:#a0a0a0;stroke:none;stroke-width:1px;stroke-linecap:butt;stroke-linejoin:miter;stroke-opacity:1"
       d="m 492.61109,428.93941 c -1.55817,-1.55816 -1.55817,-5.10885 0,-6.66701 1.83748,-1.83749 5.32758,-1.45326 7.37782,0.81223 1.51379,1.67272 1.6325,2.46241 0.6833,4.54568 -1.26317,2.77235 -5.85257,3.51765 -8.06112,1.3091 z"
       id="path4041"
       inkscape:connector-curvature="0" />
  </g>
</svg>
