<?xml version="1.0" encoding="iso-8859-1"?>
<!-- Generator: Adobe Illustrator 16.0.0, SVG Export Plug-In . SVG Version: 6.00 Build 0)  -->
<!DOCTYPE svg PUBLIC "-//W3C//DTD SVG 1.1//EN" "http://www.w3.org/Graphics/SVG/1.1/DTD/svg11.dtd">
<svg version="1.1" id="Capa_1" xmlns="http://www.w3.org/2000/svg" xmlns:xlink="http://www.w3.org/1999/xlink" x="0px" y="0px"
	 width="324.901px" height="324.901px" viewBox="0 0 324.901 324.901" style="enable-background:new 0 0 324.901 324.901;"
	 xml:space="preserve">
<g>
	<path d="M0.459,281.604c0.242,0.67,0.593,1.298,1.052,1.888l32.682,35.47h134.335v-23.91l22.038,23.91h134.335V185.807l-0.484-2.7
		h-1.266c-0.175-0.2-0.354-0.391-0.549-0.569l-32.7-30.22l-0.401-0.319c-0.58-0.458-1.255-0.835-2.193-1.181
		c-0.644-0.211-1.318-0.34-1.487-0.282l-79.492-0.058V41.314l-0.479-2.7h-1.261c-0.179-0.203-0.358-0.393-0.554-0.572l-32.7-30.217
		l-0.411-0.33c-0.591-0.464-1.266-0.838-2.184-1.178c-0.644-0.209-1.308-0.335-1.479-0.28L37.8,5.94l0.021,128.899
		c0.021,0.675,0.134,1.345,0.438,2.272c0.243,0.665,0.588,1.284,1.052,1.891l10.568,11.47L0,150.432l0.021,128.899
		C0.042,280.006,0.155,280.67,0.459,281.604z M80.594,38.614L62.229,20.255h101.466l19.873,18.359H80.594z M203.359,304.648V197.419
		h107.225v107.229H203.359z M84.657,150.498V94.323h0.134V52.926h107.225v41.396h0.137v56.138v2.671v2.7v3.512v2.7v0.812H175.1
		h-3.823h-9.498h-2.705h-2.7h-11.427h-3.979h-4.002h-5.149h-3.981H84.657v-0.812v-2.7v-3.436v-2.777V150.498z M199.162,183.106
		l-8.638-8.638h15.799v-9.725h75.942l19.865,18.362H199.162L199.162,183.106z M154.219,197.419v107.229H46.986V197.419H154.219z
		 M71.993,174.469h64.428l9.348,8.638H42.794l-18.365-18.357h38.604L71.993,174.469z M166.725,183.048v-8.579v-2.7v-1.129
		l0.981,1.129l2.362,2.7l20.957,23.983V301.59l-22.497-25.148l-1.804-2.015V183.048z M47.925,24.84l24.3,27.81v97.838v2.645v2.658
		l-2.375-2.658l-2.371-2.645l-19.554-21.861V24.84z M34.425,198.452V301.59l-24.3-27.163V170.64L34.425,198.452z"/>
	<path d="M99.528,146.846c1.155,0.575,2.386,0.849,3.602,0.849c2.975,0,5.843-1.648,7.256-4.498l6.455-12.97h45.479l6.452,12.97
		c1.413,2.845,4.281,4.498,7.256,4.498c1.218,0,2.447-0.274,3.607-0.849c4.002-1.991,5.632-6.855,3.639-10.858l-20.723-41.666
		l-15.72-31.601c-0.032-0.066-0.082-0.119-0.113-0.185c-0.14-0.264-0.309-0.501-0.47-0.746c-0.134-0.198-0.258-0.403-0.417-0.588
		c-0.171-0.211-0.367-0.393-0.562-0.583c-0.182-0.185-0.361-0.372-0.567-0.54c-0.192-0.156-0.403-0.285-0.609-0.425
		c-0.237-0.158-0.469-0.319-0.725-0.461c-0.063-0.032-0.119-0.084-0.182-0.119c-0.164-0.079-0.335-0.119-0.509-0.188
		c-0.258-0.108-0.512-0.216-0.778-0.292c-0.253-0.077-0.512-0.129-0.778-0.179c-0.253-0.048-0.506-0.095-0.759-0.124
		c-0.261-0.026-0.525-0.026-0.789-0.026c-0.266,0-0.525,0-0.789,0.026c-0.261,0.029-0.514,0.076-0.767,0.124
		c-0.258,0.05-0.514,0.103-0.767,0.179c-0.269,0.082-0.541,0.195-0.805,0.303c-0.158,0.063-0.324,0.103-0.479,0.177
		c-0.066,0.034-0.113,0.076-0.174,0.108c-0.274,0.147-0.525,0.318-0.778,0.493c-0.189,0.129-0.382,0.248-0.562,0.393
		c-0.222,0.179-0.409,0.382-0.609,0.583c-0.179,0.179-0.361,0.353-0.525,0.546c-0.161,0.195-0.292,0.412-0.433,0.617
		c-0.161,0.237-0.319,0.47-0.458,0.728c-0.032,0.066-0.082,0.119-0.113,0.185l-15.72,31.601l-20.725,41.665
		C93.891,139.996,95.521,144.855,99.528,146.846z M139.58,84.52l4.875,9.809l9.801,19.709h-29.36l9.806-19.709L139.58,84.52z"/>
	<path d="M86.914,295.91h18.607c16.248,0,29.468-13.22,29.468-29.468c0-10.937-6.004-20.477-14.871-25.565
		c2.685-3.918,4.267-8.648,4.267-13.753c0-13.463-10.953-24.411-24.419-24.411H86.914c-5.769,0-10.613,3.797-12.308,9.007
		c-0.438,0.997-0.691,2.094-0.691,3.254v0.733v22.845v11.422v32.943v0.427c0,0.639,0.092,1.245,0.227,1.841
		C75.229,291.265,80.525,295.91,86.914,295.91z M105.521,279.711H90.115v-26.536h15.406c7.317,0,13.268,5.948,13.268,13.268
		C118.79,273.757,112.838,279.711,105.521,279.711z M108.185,227.124c0,4.529-3.688,8.221-8.219,8.221h-9.851v-16.432h9.851
		C104.501,218.913,108.185,222.599,108.185,227.124z"/>
	<path d="M283.806,269.949c-5.273,4.968-12.171,7.71-19.427,7.71c-15.631,0-28.345-12.714-28.345-28.35
		c0-15.631,12.714-28.34,28.345-28.34c6.939,0,13.615,2.531,18.805,7.13c3.344,2.974,8.464,2.668,11.433-0.675
		c2.975-3.354,2.669-8.47-0.675-11.443c-8.158-7.225-18.657-11.212-29.558-11.212c-24.559,0-44.545,19.986-44.545,44.54
		c0,24.563,19.981,44.55,44.545,44.55c11.396,0,22.249-4.304,30.544-12.118c3.254-3.069,3.406-8.195,0.343-11.454
		C292.19,267.038,287.075,266.87,283.806,269.949z"/>
</g>
<g>
</g>
<g>
</g>
<g>
</g>
<g>
</g>
<g>
</g>
<g>
</g>
<g>
</g>
<g>
</g>
<g>
</g>
<g>
</g>
<g>
</g>
<g>
</g>
<g>
</g>
<g>
</g>
<g>
</g>
</svg>
