<?xml version="1.0" encoding="iso-8859-1"?>
<!-- Generator: Adobe Illustrator 16.0.0, SVG Export Plug-In . SVG Version: 6.00 Build 0)  -->
<!DOCTYPE svg PUBLIC "-//W3C//DTD SVG 1.1//EN" "http://www.w3.org/Graphics/SVG/1.1/DTD/svg11.dtd">
<svg version="1.1" id="Capa_1" xmlns="http://www.w3.org/2000/svg" xmlns:xlink="http://www.w3.org/1999/xlink" x="0px" y="0px"
	 width="968.901px" height="968.901px" viewBox="0 0 968.901 968.901" style="enable-background:new 0 0 968.901 968.901;"
	 xml:space="preserve">
<g>
	<g>
		<path d="M536.629,579.602v-569.6c0-5.6-4.601-10.1-10.2-10c-215.901,5.4-389.201,182.1-389.201,399.3
			c0,64.899,15.5,126.199,43,180.399h356.401V579.602z"/>
		<path d="M608.129,141.201c-5.101-8.9-18.7-5.3-18.7,4.9v433.5h268.2L608.129,141.201z"/>
		<path d="M580.929,836.302c55.1,8.399,110.2,16.6,166,15.8c38.9-0.5,73.3-5.7,104.5-15.7l77.9-193c2.699-6.6-2.2-13.7-9.301-13.7
			h-871.2c-9.4,0-13.6,11.8-6.3,17.7l221.6,181c-2.4-1.9-20.5,4.8-23.7,5.7c-46,12.8-90.3,35.399-124.6,69.399
			c-3.6,3.601-6.7,6.601-9.1,9.2l0,0c-1.6,1.8-0.2,5.101,1.8,4.3c2.9-1.199,6.6-2.6,10.8-4.3c125.5-45.6,263.2-17.3,388.001,16
			c71.899,19.2,145,38.4,219.8,40.101c62.6,1.399,127.2-11.9,181.1-44.7l0.2-0.101c1.9-1.1,1.2-4.8-0.9-4.6h-0.199
			c-3.101,0.2-6.9,0.6-11.4,1c-90.9,9.5-182-12.4-268.2-39.3c-79.899-25-178.4-68.4-263.701-60.101
			C437.128,813.701,508.929,825.201,580.929,836.302z"/>
	</g>
</g>
<g>
</g>
<g>
</g>
<g>
</g>
<g>
</g>
<g>
</g>
<g>
</g>
<g>
</g>
<g>
</g>
<g>
</g>
<g>
</g>
<g>
</g>
<g>
</g>
<g>
</g>
<g>
</g>
<g>
</g>
</svg>
