<?xml version="1.0" encoding="iso-8859-1"?>
<!-- Generator: Adobe Illustrator 16.0.0, SVG Export Plug-In . SVG Version: 6.00 Build 0)  -->
<!DOCTYPE svg PUBLIC "-//W3C//DTD SVG 1.1//EN" "http://www.w3.org/Graphics/SVG/1.1/DTD/svg11.dtd">
<svg version="1.1" id="Capa_1" xmlns="http://www.w3.org/2000/svg" xmlns:xlink="http://www.w3.org/1999/xlink" x="0px" y="0px"
	 width="311.603px" height="311.603px" viewBox="0 0 311.603 311.603" style="enable-background:new 0 0 311.603 311.603;"
	 xml:space="preserve">
<g>
	<g>
		<path d="M7.956,140.163H9.46c-0.148,2.291-0.158,4.533-0.153,6.639v0.642c0.036,20.441,0.091,51.334,40.806,57.895
			c0.197,0.025,4.841,0.585,11.951,0.585l0,0c16.099,0,47.499-3.019,64.022-24.638c0.394,0.135,0.816,0.279,1.266,0.43
			c1.896,0.643,5.681-1.568,7.786-5.359c1.579-2.848,2.931-5.944,4.008-9.32c1.32-4.133,2.084-11.177,3.446-15.296
			c1.776-5.367,5.504-11.571,13.209-11.576c7.708,0.01,11.431,6.208,13.207,11.576c1.361,4.119,2.128,11.159,3.448,15.296
			c1.072,3.381,2.429,6.478,4.008,9.32c2.103,3.785,5.888,6.002,7.783,5.359l1.32-0.439c16.549,21.639,47.897,24.647,63.976,24.647
			c7.109,0,11.754-0.564,12.05-0.601c40.622-6.551,40.669-37.438,40.705-57.887v-0.709c0.005-2.079-0.005-4.295-0.146-6.568
			c0.813,0,1.497,0,1.497,0c5.991-0.601,9.973-19.794,6.876-27.877c-5.576-14.512-107.104-0.663-120.381,2.356
			c-8.668,1.973-12.583,4.767-18.988,6.659c-8.425,2.485-22.286,2.485-30.711,0c-6.406-1.888-10.165-4.36-18.988-6.659
			C108.287,111.207,6.651,97.77,1.077,112.281C-2.02,120.37,1.962,139.562,7.956,140.163z M296.991,119.834h11.039v3.557h-11.039
			V119.834z M185.894,131.547c6.395-7.169,20.945-15.881,53.966-16.635c1.9-0.042,3.749-0.062,5.53-0.062
			c23.488,0,38.442,3.547,45.724,10.838c0.223,0.223,0.383,0.466,0.59,0.699h-30.488c-1.632,0-3.175,0.753-4.18,2.035l-8.59,10.998
			c-2.17,0.153-4.272,1.155-5.712,3.006l-24.042,30.761c-2.703,3.459-2.097,8.461,1.367,11.159c1.455,1.134,3.18,1.688,4.894,1.688
			c2.366,0,4.707-1.051,6.275-3.055l24.037-30.758c1.45-1.852,1.916-4.133,1.538-6.273l7.001-8.961h32.689
			c0.491,3.197,0.518,6.512,0.507,9.8v0.64c-0.036,19.76-0.077,46.825-36.143,52.646c-0.047,0.005-4.547,0.549-11.305,0.549
			c-25.911,0-69.387-7.12-69.511-55.049C180.033,145.502,179.489,138.742,185.894,131.547z M58.89,152.226l24.04,30.758
			c1.564,2.004,3.91,3.056,6.268,3.056c1.714,0,3.436-0.555,4.894-1.688c3.464-2.703,4.072-7.705,1.369-11.159l-24.042-30.76
			c-1.442-1.851-3.542-2.858-5.711-3.006l-8.588-10.999c-1.007-1.287-2.55-2.035-4.179-2.035H19.907
			c0.207-0.228,0.365-0.471,0.593-0.699c7.832-7.847,24.254-11.397,51.253-10.776c32.837,0.749,47.393,9.375,53.819,16.475
			c6.465,7.148,6.025,13.913,5.994,14.418c-0.111,47.696-43.592,54.811-69.5,54.811c-6.706,0-11.188-0.533-11.203-0.533
			c-36.167-5.831-36.216-32.896-36.247-52.656v-0.709c-0.011-3.254,0.01-6.548,0.502-9.73h35.235l7,8.961
			C56.974,148.094,57.443,150.374,58.89,152.226z M3.575,119.834h11.04v3.557H3.575V119.834z"/>
	</g>
</g>
<g>
</g>
<g>
</g>
<g>
</g>
<g>
</g>
<g>
</g>
<g>
</g>
<g>
</g>
<g>
</g>
<g>
</g>
<g>
</g>
<g>
</g>
<g>
</g>
<g>
</g>
<g>
</g>
<g>
</g>
</svg>
