<?xml version="1.0" encoding="iso-8859-1"?>
<!-- Generator: Adobe Illustrator 16.0.0, SVG Export Plug-In . SVG Version: 6.00 Build 0)  -->
<!DOCTYPE svg PUBLIC "-//W3C//DTD SVG 1.1//EN" "http://www.w3.org/Graphics/SVG/1.1/DTD/svg11.dtd">
<svg version="1.1" id="Capa_1" xmlns="http://www.w3.org/2000/svg" xmlns:xlink="http://www.w3.org/1999/xlink" x="0px" y="0px"
	 width="30.504px" height="30.504px" viewBox="0 0 30.504 30.504" style="enable-background:new 0 0 30.504 30.504;"
	 xml:space="preserve">
<g>
	<g>
		<path d="M18.502,22.654c-0.814-0.546-7.785-5.294-9.664-8.617l-0.103-0.183l-0.212-0.008c-1.618-0.066-2.876,0.87-3.415,1.354
			c-0.22-0.223-0.444-0.452-0.673-0.688l-0.273-0.28l-0.271,0.282c-1.061,1.101-1.53,2.125-1.396,3.048
			c0.109,0.749,0.621,1.401,1.481,1.888c0.155,0.088,1.95,1.309,3.901,2.867c-0.337,0.344-1.562,1.137-2.006,1.453
			c-0.499,0.354-2.578,2.241-2.578,2.241l1.343,0.317l0.465,0.908c0,0,0.638-1.562,1.338-2.333s1.923-1.387,1.923-1.387
			s-0.661,0.944-1.135,1.86c-0.473,0.916-0.594,2.504-0.594,2.504l0.821-0.26l0.566,1.234c0,0,0.151-1.744,0.499-2.88
			c0.281-0.919,0.97-1.79,1.226-2.095c2.474,2.178,5.059,4.808,5.576,5.339c0.312,0.358,0.716,0.622,1.242,0.739
			c0.188,0.041,0.379,0.061,0.565,0.061c1.07,0,2.086-0.667,2.74-1.835c0.764-1.359,0.979-3.449-0.347-4.822
			C19.158,22.982,18.814,22.767,18.502,22.654z M8.012,21.457c-1.79-1.408-3.423-2.529-3.661-2.664
			c-0.659-0.373-1.031-0.824-1.106-1.34c-0.088-0.606,0.224-1.32,0.928-2.126c1.751,1.792,3.248,3.214,4.519,4.345
			C8.117,20.605,8.016,21.106,8.012,21.457z M9.124,19.041c-1.009-0.897-2.164-1.984-3.48-3.302c0.447-0.391,1.43-1.11,2.647-1.139
			c0.636,1.043,1.69,2.188,2.878,3.296C10.551,17.959,9.779,18.229,9.124,19.041z M9.893,23.004
			c0.064-0.484,0.214-1.151,0.552-1.838c2.226,1.813,3.49,2.476,4.043,2.709c-0.086,0.638-0.231,2.108,0.021,3.452
			C13.314,26.145,11.557,24.447,9.893,23.004z M19.212,27.816c-0.471,0.839-1.37,1.65-2.483,1.404
			c-1.911-0.422-1.692-4.135-1.446-5.53l0.062-0.353l-0.351-0.082c-0.015-0.004-1.204-0.338-4.142-2.737
			c0.552-0.642,1.436-0.929,2.108-1.056c1.659,1.377,3.311,2.567,4.298,3.256c-0.03,0.015-0.058,0.029-0.083,0.045
			c-1.138,0.646-1.613,2.515-1.366,3.41c0.29,1.053,0.993,1.729,1.733,1.715c0.316-0.012,1.086-0.19,1.367-1.596l0.044-0.219
			l-0.169-0.143c-1.068-0.909-1.646-1.446-1.922-1.715c0.176-0.342,0.408-0.639,0.687-0.797c0.423-0.238,0.904-0.082,1.433,0.467
			C20.037,24.983,19.841,26.693,19.212,27.816z M18.116,26.358c-0.132,0.479-0.353,0.767-0.604,0.774c-0.003,0-0.007,0-0.012,0
			c-0.314,0-0.755-0.401-0.964-1.159c-0.067-0.242-0.048-0.603,0.042-0.979C16.891,25.287,17.38,25.729,18.116,26.358z"/>
		<path d="M5.959,8.611l-1.196,3.831c0,0,4.888,0.475,8.958,1.744c4.072,1.272,8.361,3.663,8.361,3.663l1.216-3.899
			c0,0-3.653-3.682-8.004-5.04C10.945,7.553,5.959,8.611,5.959,8.611z"/>
		<path d="M30.504,14.008l-1.423-1.493l0.14-0.453c0,0,1.254-2.306-1.904-1.88c-0.164,0.032-0.262,0.085-0.317,0.151l-9.397-9.851
			L0,4.367l4.841,4.324l0.26-0.833c0,0,5.561-1.179,10.41,0.334c4.85,1.515,8.924,5.62,8.924,5.62l-0.453,1.453l3.636-0.702
			c-0.606,1.938-1.302,4.171-1.519,4.862l-1.035-0.324l-0.752,2.406l1.676-0.522l1.232,1.431l0.75-2.406l-1.119-0.351l1.644-5.266
			L30.504,14.008z M28.42,13.469c-0.125,0.402-0.553,0.626-0.955,0.501c-0.402-0.126-0.627-0.553-0.502-0.955
			c0.127-0.402,0.555-0.626,0.956-0.501S28.545,13.068,28.42,13.469z M27.71,11.077c0.397-0.118,1.071-0.24,0.892,0.334
			c-0.018,0.056-0.067,0.218-0.143,0.453L27.71,11.077z"/>
	</g>
</g>
<g>
</g>
<g>
</g>
<g>
</g>
<g>
</g>
<g>
</g>
<g>
</g>
<g>
</g>
<g>
</g>
<g>
</g>
<g>
</g>
<g>
</g>
<g>
</g>
<g>
</g>
<g>
</g>
<g>
</g>
</svg>
