<?xml version="1.0" encoding="iso-8859-1"?>
<!-- Generator: Adobe Illustrator 16.0.0, SVG Export Plug-In . SVG Version: 6.00 Build 0)  -->
<!DOCTYPE svg PUBLIC "-//W3C//DTD SVG 1.1//EN" "http://www.w3.org/Graphics/SVG/1.1/DTD/svg11.dtd">
<svg version="1.1" id="Capa_1" xmlns="http://www.w3.org/2000/svg" xmlns:xlink="http://www.w3.org/1999/xlink" x="0px" y="0px"
	 width="124.018px" height="124.018px" viewBox="0 0 124.018 124.018" style="enable-background:new 0 0 124.018 124.018;"
	 xml:space="preserve">
<g>
	<g>
		<path d="M81.589,26.73c4.063,1.865,8.375,3.901,8.443,3.933c0.651,0.308,1.342,0.454,2.019,0.454c1.769,0,3.464-1,4.271-2.706
			c1.114-2.359,0.107-5.176-2.252-6.29c-0.177-0.083-1.887-0.891-4.129-1.937C88.1,23.305,85.13,25.678,81.589,26.73z"/>
		<path d="M31.722,31.119c0.677,0,1.364-0.146,2.016-0.456c0.067-0.031,4.281-2.022,8.305-3.871
			c-3.594-0.998-6.623-3.346-8.515-6.467c-2.09,0.977-3.66,1.717-3.826,1.796c-2.36,1.115-3.368,3.932-2.255,6.29
			C28.253,30.118,29.952,31.119,31.722,31.119z"/>
		<circle cx="77.732" cy="13.092" r="13.092"/>
		<circle cx="46.158" cy="13.092" r="13.092"/>
		<path d="M96.86,34.783c-0.011-0.012-0.022-0.02-0.034-0.031l-1.228-1.469l-1.115-1.116c-0.801,0.421-1.696,0.665-2.629,0.665
			c-0.84,0-1.656-0.183-2.421-0.544c-0.07-0.034-5.329-2.518-9.703-4.511l-2.001,1.83l-2.641-2.487
			c-0.547-0.092-1.085-0.209-1.61-0.361c-1.091,0.495-2.391,1.17-3.734,1.963c0.099-0.578,0.095-1.163-0.021-1.732
			c0.598-0.348,1.186-0.668,1.762-0.973c-3.082-1.408-5.579-3.864-7.046-6.913c-0.812,0.494-1.609,0.998-2.369,1.513
			c-1.111-0.637-2.183-1.244-3.025-1.721c-1.421,3.076-3.884,5.565-6.939,7.021c2.5,1.302,8.585,4.673,10.274,5.864
			c0.369,0.26,0.769,0.439,1.176,0.581v24.643c0,2.118,0.34,4.133,0.976,5.973c-0.019,0.196-0.029,0.394-0.029,0.593v5.535h0.035
			c-0.002,0.081-0.022,0.155-0.022,0.237l0.003,48.669c0,3.316,2.688,6.006,6.007,6.006c3.316,0,6.007-2.689,6.007-6.007
			l-0.004-48.67c0-0.081-0.021-0.155-0.023-0.235h0.903c-0.004,0.079-0.024,0.154-0.024,0.234l-0.003,48.67
			c0,3.316,2.688,6.006,6.006,6.007c3.317,0,6.006-2.688,6.006-6.006l0.006-48.669c0-0.082-0.021-0.156-0.025-0.236h0.146
			c0.449,0.881,1.157,1.643,2.093,2.149c0.772,0.42,1.604,0.619,2.425,0.619c1.804,0,3.549-0.96,4.47-2.654
			C107.712,52.291,102.694,41.149,96.86,34.783z M91.566,60.169l0.294-15.055C93.621,48.433,94.403,53.162,91.566,60.169z"/>
		<path d="M50.155,26.694c-0.456,0.14-0.922,0.258-1.396,0.354l-2.717,2.559l-2.002-1.831c-4.376,1.994-9.633,4.478-9.706,4.511
			c-0.765,0.361-1.577,0.544-2.42,0.544c-0.931,0-1.826-0.243-2.625-0.665l-1.951,2.123c-0.059,0.057-0.126,0.101-0.181,0.161
			c-5.833,6.365-10.852,17.508-1.643,34.437c0.921,1.694,2.666,2.655,4.469,2.655c0.82,0,1.654-0.199,2.424-0.619
			c0.811-0.442,1.436-1.083,1.886-1.817h0.087c-0.001,0.049-0.014,0.094-0.014,0.145l0.002,48.669c0,3.317,2.688,6.006,6.005,6.006
			c3.318,0,6.008-2.688,6.008-6.007l-0.002-48.669c0-0.05-0.013-0.095-0.014-0.144h0.885c-0.001,0.049-0.016,0.094-0.016,0.144
			l-0.004,48.669c0,3.318,2.688,6.007,6.007,6.007s6.007-2.688,6.007-6.006l0.004-48.669c0-0.049-0.013-0.096-0.014-0.145h0.035
			v-5.533c0-0.201-0.012-0.398-0.031-0.595c0.638-1.84,0.978-3.854,0.978-5.973V31.66c-1.159-0.008-2.274-0.363-3.225-1.033
			C54.685,29.001,52.06,27.545,50.155,26.694z M31.869,45.369v2.472l0.273,11.183C29.834,52.855,30.386,48.515,31.869,45.369z"/>
	</g>
</g>
<g>
</g>
<g>
</g>
<g>
</g>
<g>
</g>
<g>
</g>
<g>
</g>
<g>
</g>
<g>
</g>
<g>
</g>
<g>
</g>
<g>
</g>
<g>
</g>
<g>
</g>
<g>
</g>
<g>
</g>
</svg>
