<?xml version="1.0" encoding="utf-8"?>
<!-- Generator: Adobe Illustrator 16.0.0, SVG Export Plug-In . SVG Version: 6.00 Build 0)  -->
<!DOCTYPE svg PUBLIC "-//W3C//DTD SVG 1.1//EN" "http://www.w3.org/Graphics/SVG/1.1/DTD/svg11.dtd">
<svg version="1.1" id="Layer_1" xmlns="http://www.w3.org/2000/svg" xmlns:xlink="http://www.w3.org/1999/xlink" x="0px" y="0px"
	 width="24px" height="24px" viewBox="0 0 24 24" enable-background="new 0 0 24 24" xml:space="preserve">
<g>
	<path d="M17.469,19.994v-1.358l-0.099-0.088c-0.117,0.076-0.253,0.124-0.401,0.131c-0.016,0-0.032,0-0.046,0
		c-0.157,0-0.304-0.043-0.431-0.119v1.369c-0.492,0.172-0.85,0.637-0.85,1.191h2.522C18.165,20.626,17.882,20.199,17.469,19.994
		L17.469,19.994z M17.469,19.994"/>
	<path d="M20.554,19.929v-1.372c-0.123,0.078-0.27,0.122-0.426,0.122c-0.017,0-0.033,0-0.047,0
		c-0.148-0.007-0.284-0.056-0.401-0.131l-0.098,0.088v1.357c-0.413,0.207-0.696,0.634-0.696,1.125h2.519
		C21.404,20.566,21.05,20.098,20.554,19.929L20.554,19.929z M20.554,19.929"/>
	<path d="M22.244,13.377"/>
	<path d="M16.492,16.141v0.992c0.114-0.068,0.246-0.108,0.385-0.116c0.226-0.013,0.433,0.065,0.589,0.203l-0.044-1.08L16.492,16.141
		z"/>
	<path d="M19.703,16.14l-0.045,1.08c0.157-0.137,0.364-0.215,0.59-0.203c0.139,0.008,0.271,0.048,0.385,0.116v-0.992L19.703,16.14z"
		/>
	<polygon points="17.253,10.797 15.531,10.797 15.594,11.773 15.861,15.843 16.492,15.843 17.466,15.843 19.578,15.843 
		20.554,15.843 21.185,15.843 21.45,11.773 21.516,10.797 19.794,10.794 	"/>
	<path d="M23.881,16.192c0.002-0.015-0.001-0.03-0.001-0.045c0-0.016,0.001-0.031,0.001-0.047c0-0.242-0.197-0.442-0.44-0.439h-0.07
		v-1.576c-0.14,0.102-0.306,0.16-0.488,0.16c-0.015,0-0.03,0-0.045,0c-0.151-0.008-0.287-0.057-0.403-0.132l-0.04,0.035v1.514
		h-0.061c-0.246,0-0.443,0.197-0.443,0.442c0,0.003,0,0.004,0,0.007c-0.004,0.028-0.009,0.057-0.009,0.084v0.539
		c0,0.197,0.159,0.355,0.356,0.355c0.194,0,0.356-0.159,0.356-0.355v-0.188l0.579-0.002v0.19c0,0.194,0.16,0.354,0.354,0.354
		c0.197,0,0.356-0.16,0.356-0.354L23.881,16.192z M23.881,16.192"/>
	<g>
		<path d="M21.693,11.927c0.208,0.183,0.461,0.507,0.601,0.901c0.16-0.165,0.386-0.261,0.634-0.246l0,0
			c0.118,0.005,0.232,0.038,0.335,0.091c-0.232-0.828-0.93-1.605-1.506-1.85L21.693,11.927z"/>
		<path d="M23.881,16.192"/>
		<circle cx="22.881" cy="13.377" r="0.537"/>
	</g>
	<g>
		<path d="M17.225,4.945c0.045-0.273,0.188-0.658,0.45-0.983c-0.226-0.05-0.425-0.19-0.543-0.41l0,0
			c-0.058-0.104-0.09-0.217-0.1-0.333c-0.58,0.636-0.875,1.637-0.779,2.255L17.225,4.945z"/>
		<path d="M19.698,0.841c-0.015,0.004-0.025,0.017-0.038,0.025c-0.014,0.008-0.026,0.015-0.04,0.022
			c-0.206,0.128-0.271,0.401-0.142,0.604l0.037,0.062l-1.339,0.83c0.158,0.064,0.296,0.176,0.393,0.33
			c0.008,0.013,0.016,0.025,0.023,0.038c0.073,0.133,0.104,0.274,0.101,0.413l0.05,0.015l1.286-0.797l0.033,0.052
			c0.129,0.209,0.4,0.273,0.609,0.144c0.003-0.001,0.004-0.002,0.006-0.003c0.026-0.011,0.053-0.022,0.075-0.037l0.458-0.284
			c0.168-0.104,0.22-0.322,0.115-0.491c-0.103-0.166-0.323-0.218-0.49-0.115l-0.16,0.1L20.37,1.258l0.161-0.101
			c0.165-0.102,0.216-0.323,0.114-0.487c-0.104-0.168-0.324-0.22-0.489-0.117L19.698,0.841z M19.698,0.841"/>
		<circle cx="17.832" cy="3.172" r="0.536"/>
	</g>
	<circle cx="16.903" cy="17.845" r="0.537"/>
	<circle cx="20.145" cy="17.845" r="0.536"/>
	<g>
		<g>
			<path d="M4.017,11.337c0,1.107-0.898,2.008-2.008,2.008S0,12.444,0,11.337c0-1.109,0.899-2.008,2.009-2.008
				S4.017,10.228,4.017,11.337L4.017,11.337z M4.017,11.337"/>
			<path d="M16.131,7.075c-0.525-0.519-1.374-0.217-1.893,0.308l-4.802,4.9l-1.732,0.209c-0.178,0.054-0.443,0.013-0.597-0.092
				l-0.24-0.167l3.4-2.648c0.51-0.397,0.602-1.134,0.205-1.645c-0.397-0.509-1.135-0.601-1.646-0.203L5.23,10.54
				c-0.222,0.173-0.359,0.412-0.417,0.666c0,0.001-0.003,0.004-0.005,0.006c0,0-1.327,2.143-1.327,2.206
				c-0.268,0.355-0.323,0.845-0.099,1.261l1.952,3.625c0.211,0.393,0.615,0.617,1.031,0.617c0.188,0,0.378-0.045,0.555-0.141
				c0.569-0.307,0.783-1.017,0.477-1.586l-0.861-1.6l2.002,0.117v6.454c0,0.739,0.303,1.337,1.041,1.337
				c0.739,0,1.042-0.599,1.042-1.337V14.3c0-0.018-0.005-0.035-0.006-0.054l5.125-5.351C16.26,8.371,16.656,7.596,16.131,7.075
				L16.131,7.075z M16.131,7.075"/>
		</g>
	</g>
	<path d="M23.95,6.85l-0.496-0.656c0.053-0.183-0.054-0.524-0.28-0.887l-0.132-0.193c-0.007-0.009-0.013-0.017-0.019-0.025
		s-0.011-0.015-0.017-0.022c0.152-0.212,0.573-0.892,0.331-1.516c0.07-0.126,0.064-0.289-0.029-0.413
		c-0.128-0.169-0.367-0.2-0.535-0.073C22.607,3.191,22.572,3.43,22.7,3.599c0.106,0.142,0.296,0.186,0.451,0.12
		c0.119,0.456-0.16,0.954-0.298,1.168c-0.288-0.316-0.591-0.513-0.781-0.509l-0.495-0.653c-0.49-0.646-2.77,2.101-2.77,2.101
		l2.371,3.127C21.179,8.952,24.44,7.495,23.95,6.85z M20.36,5.38l0.063-0.449L20.916,5l0.068-0.493l0.449,0.062l-0.068,0.493
		l0.492,0.069l-0.063,0.449l-0.492-0.069l-0.068,0.493l-0.449-0.063l0.068-0.494L20.36,5.38z M20.041,6.443l0.363-0.275l0.437,0.576
		l0.437,0.577l-0.361,0.275L20.041,6.443z M22.466,7.638l-0.449-0.063l0.069-0.493l-0.494-0.069l0.063-0.449l0.493,0.069
		l0.068-0.493l0.449,0.063l-0.069,0.493l0.493,0.07l-0.063,0.449l-0.492-0.069L22.466,7.638z"/>
</g>
</svg>
